<?xml version="1.0" standalone="no"?><svg xmlns="http://www.w3.org/2000/svg" viewBox="0 0 1440 320"><path fill="#0099ff" fill-opacity="1" d="M0,320L7.5,282.7C15,245,30,171,45,149.3C60,128,75,160,90,165.3C105,171,120,149,135,138.7C150,128,165,128,180,154.7C195,181,210,235,225,224C240,213,255,139,270,117.3C285,96,300,128,315,144C330,160,345,160,360,176C375,192,390,224,405,229.3C420,235,435,213,450,197.3C465,181,480,171,495,144C510,117,525,75,540,74.7C555,75,570,117,585,138.7C600,160,615,160,630,160C645,160,660,160,675,154.7C690,149,705,139,720,138.7C735,139,750,149,765,133.3C780,117,795,75,810,69.3C825,64,840,96,855,96C870,96,885,64,900,80C915,96,930,160,945,170.7C960,181,975,139,990,138.7C1005,139,1020,181,1035,181.3C1050,181,1065,139,1080,144C1095,149,1110,203,1125,229.3C1140,256,1155,256,1170,229.3C1185,203,1200,149,1215,117.3C1230,85,1245,75,1260,112C1275,149,1290,235,1305,229.3C1320,224,1335,128,1350,96C1365,64,1380,96,1395,128C1410,160,1425,192,1433,208L1440,224L1440,320L1432.5,320C1425,320,1410,320,1395,320C1380,320,1365,320,1350,320C1335,320,1320,320,1305,320C1290,320,1275,320,1260,320C1245,320,1230,320,1215,320C1200,320,1185,320,1170,320C1155,320,1140,320,1125,320C1110,320,1095,320,1080,320C1065,320,1050,320,1035,320C1020,320,1005,320,990,320C975,320,960,320,945,320C930,320,915,320,900,320C885,320,870,320,855,320C840,320,825,320,810,320C795,320,780,320,765,320C750,320,735,320,720,320C705,320,690,320,675,320C660,320,645,320,630,320C615,320,600,320,585,320C570,320,555,320,540,320C525,320,510,320,495,320C480,320,465,320,450,320C435,320,420,320,405,320C390,320,375,320,360,320C345,320,330,320,315,320C300,320,285,320,270,320C255,320,240,320,225,320C210,320,195,320,180,320C165,320,150,320,135,320C120,320,105,320,90,320C75,320,60,320,45,320C30,320,15,320,8,320L0,320Z"></path></svg>